<svg xmlns="http://www.w3.org/2000/svg" id="svg3692" width="64" height="64" viewBox="0 0 64 64"><path d="M21.7 61.428c-7.576-2.835-12.865-7.23-16.842-13.995-3.072-5.227-3.672-7.786-3.672-15.684 0-8.179.539-10.31 4.036-15.965 2.5-4.046 6.516-8.061 10.562-10.562 5.673-3.508 7.774-4.036 16.07-4.036 8.294 0 10.395.528 16.068 4.036 4.046 2.5 8.061 6.516 10.563 10.562 3.507 5.673 4.035 7.774 4.035 16.07 0 8.294-.528 10.395-4.035 16.068C50.939 60.127 34.425 66.19 21.7 61.428zm19.332-1.205c3.298-.979 7.897-4.039 11.525-7.666 12.389-12.39 12.389-29.018 0-41.407-12.39-12.39-29.018-12.39-41.407 0-12.389 12.388-12.389 29.003 0 41.421 8.644 8.665 18.217 11.116 29.882 7.652zM16.52 32.633V14.082l10.333-.867c5.683-.477 12.433-.978 15-1.114l4.667-.247.373 17.816c.251 11.998-.129 18.42-1.163 19.666-1.13 1.362-5.195 1.851-15.373 1.851H16.52zm26.666-.113V15.186H17.853v34.667h25.333zM21.853 43.853c0-1.573 1.852-2 8.667-2 6.815 0 8.666.427 8.666 2s-1.851 2-8.666 2-8.667-.427-8.667-2zm13.024-.286c-2.004-.304-5.604-.31-8-.014-2.396.297-.757.546 3.643.554 4.4.007 6.36-.236 4.357-.54zM24.52 33.853c-5.281-5.28-1.442-14.667 6-14.667 7.441 0 11.28 9.386 6 14.667-1.467 1.467-4.167 2.667-6 2.667-1.834 0-4.534-1.2-6-2.667zm10.895-.873c4.563-4.13 1.445-12.46-4.664-12.46-3.568 0-7.565 3.752-7.565 7.101 0 6.391 7.471 9.665 12.229 5.359zm10.438-3.127c0-9.533-.45-17.334-1-17.336-.55 0-.817 7.8-.592 17.334.224 9.534.674 17.335 1 17.335.325 0 .592-7.8.592-17.333z" id="path3702" fill="#a6a6a6" stroke-width="1.333"/></svg>