<?xml version="1.0" encoding="UTF-8" standalone="no"?>
<!-- Created with Inkscape (http://www.inkscape.org/) -->

<svg
   xmlns:dc="http://purl.org/dc/elements/1.1/"
   xmlns:cc="http://creativecommons.org/ns#"
   xmlns:rdf="http://www.w3.org/1999/02/22-rdf-syntax-ns#"
   xmlns:svg="http://www.w3.org/2000/svg"
   xmlns="http://www.w3.org/2000/svg"
   xmlns:sodipodi="http://sodipodi.sourceforge.net/DTD/sodipodi-0.dtd"
   xmlns:inkscape="http://www.inkscape.org/namespaces/inkscape"
   version="1.1"
   id="svg3692"
   width="64"
   height="64"
   viewBox="0 0 64 64"
   sodipodi:docname="icon1.svg"
   inkscape:version="0.92.0 r15299">
  <metadata
     id="metadata3698">
    <rdf:RDF>
      <cc:Work
         rdf:about="">
        <dc:format>image/svg+xml</dc:format>
        <dc:type
           rdf:resource="http://purl.org/dc/dcmitype/StillImage" />
        <dc:title></dc:title>
      </cc:Work>
    </rdf:RDF>
  </metadata>
  <defs
     id="defs3696" />
  <sodipodi:namedview
     pagecolor="#ffffff"
     bordercolor="#666666"
     borderopacity="1"
     objecttolerance="10"
     gridtolerance="10"
     guidetolerance="10"
     inkscape:pageopacity="0"
     inkscape:pageshadow="2"
     inkscape:window-width="1135"
     inkscape:window-height="773"
     id="namedview3694"
     showgrid="false"
     inkscape:zoom="3.6875"
     inkscape:cx="32"
     inkscape:cy="32"
     inkscape:window-x="0"
     inkscape:window-y="0"
     inkscape:window-maximized="0"
     inkscape:current-layer="svg3692" />
  <path
     style="fill:#a6a6a6;stroke-width:1.33333337"
     d="M 21.699868,61.428176 C 14.123983,58.593176 8.8354547,54.198356 4.8582511,47.432644 1.7855008,42.205516 1.1864407,39.646636 1.1864407,31.748547 c 0,-8.178235 0.5385771,-10.309022 4.0352473,-15.964752 2.5011606,-4.045533 6.516575,-8.0609467 10.562107,-10.5621067 5.673361,-3.50757 7.774696,-4.035248 16.069312,-4.035248 8.294616,0 10.39595,0.527678 16.069312,4.035248 4.045532,2.50116 8.060946,6.5165737 10.562106,10.5621067 3.507571,5.673361 4.035248,7.774696 4.035248,16.069312 0,8.294616 -0.527677,10.39595 -4.035248,16.069312 -7.545521,12.204597 -24.059332,18.267767 -36.784657,13.505757 z m 19.331879,-1.20483 c 3.297897,-0.97937 7.897197,-4.03894 11.524929,-7.66667 12.389176,-12.389176 12.389176,-29.017963 0,-41.407138 -12.389176,-12.3891757 -29.017963,-12.3891757 -41.407137,0 -12.3882107,12.38821 -12.3882107,29.003677 0,41.421638 8.644028,8.66478 18.217262,11.11628 29.882208,7.65217 z M 16.519773,32.633533 V 14.080627 l 10.333334,-0.866651 c 5.683333,-0.476657 12.433333,-0.977849 15,-1.113759 l 4.666666,-0.24711 0.373071,17.815502 c 0.251264,11.998842 -0.128533,18.419898 -1.16326,19.666667 -1.130121,1.36171 -5.194788,1.85116 -15.373071,1.85116 H 16.519773 Z M 43.18644,32.519773 V 15.18644 H 30.519773 17.853107 V 32.519773 49.853106 H 30.519773 43.18644 Z M 21.853107,43.853107 c 0,-1.57265 1.851852,-2 8.666666,-2 6.814815,0 8.666667,0.42735 8.666667,2 0,1.572649 -1.851852,2 -8.666667,2 -6.814814,0 -8.666666,-0.427351 -8.666666,-2 z m 13.023878,-0.286035 c -2.003533,-0.304232 -5.603533,-0.310356 -8,-0.0136 -2.396466,0.296741 -0.757212,0.545659 3.642788,0.553143 4.4,0.0075 6.360746,-0.235311 4.357212,-0.539543 z M 24.519773,33.853107 c -5.28103,-5.281031 -1.441452,-14.666667 6,-14.666667 7.441452,0 11.281031,9.385636 6,14.666667 -1.466666,1.466666 -4.166666,2.666666 -6,2.666666 -1.833333,0 -4.533333,-1.2 -6,-2.666666 z m 10.895012,-0.873318 c 4.562767,-4.129246 1.444856,-12.460016 -4.663341,-12.460016 -3.568289,0 -7.565004,3.751924 -7.565004,7.101663 0,6.390611 7.47052,9.664128 12.228345,5.358353 z m 10.438322,-3.126682 c 0,-9.533334 -0.45,-17.334384 -1,-17.335668 -0.55,-0.0013 -0.816644,7.798716 -0.592542,17.333333 0.224103,9.534617 0.674103,17.335668 1,17.335668 0.325898,0 0.592542,-7.8 0.592542,-17.333333 z"
     id="path3702"
     inkscape:connector-curvature="0" />
</svg>
